#define max_toggled_width 6
#define max_toggled_height 6
static unsigned char max_toggled_bits[] = {
   0x0f, 0x0f, 0x00, 0x00, 0x3c, 0x3c };
